<svg display="none" xmlns="http://www.w3.org/2000/svg">
<!-- instagram -->
  <symbol xmlns="http://www.w3.org/2000/svg" viewBox="0 0 512 512" id="instagram">
    <path d="M352 0H160C71.648 0 0 71.648 0 160v192c0 88.352 71.648 160 160 160h192c88.352 0 160-71.648 160-160V160C512 71.648 440.352 0 352 0zm112 352c0 61.76-50.24 112-112 112H160c-61.76 0-112-50.24-112-112V160C48 98.24 98.24 48 160 48h192c61.76 0 112 50.24 112 112v192z"></path>
    <path d="M256 128c-70.688 0-128 57.312-128 128s57.312 128 128 128 128-57.312 128-128-57.312-128-128-128zm0 208c-44.096 0-80-35.904-80-80 0-44.128 35.904-80 80-80s80 35.872 80 80c0 44.096-35.904 80-80 80z"></path>
    <circle cx="393.6" cy="118.4" r="17.056"></circle>
  </symbol>

  <!-- vk -->
  <symbol viewBox="0 0 24 24" xmlns="http://www.w3.org/2000/svg" id="vk">
    <path d="M19.915 13.028c-.388-.49-.277-.708 0-1.146.005-.005 3.208-4.431 3.538-5.932l.002-.001c.164-.547 0-.949-.793-.949h-2.624c-.668 0-.976.345-1.141.731 0 0-1.336 3.198-3.226 5.271-.61.599-.892.791-1.225.791-.164 0-.419-.192-.419-.739V5.949c0-.656-.187-.949-.74-.949H9.161c-.419 0-.668.306-.668.591 0 .622.945.765 1.043 2.515v3.797c0 .832-.151.985-.486.985-.892 0-3.057-3.211-4.34-6.886-.259-.713-.512-1.001-1.185-1.001H.9c-.749 0-.9.345-.9.731 0 .682.892 4.073 4.148 8.553C6.318 17.343 9.374 19 12.154 19c1.671 0 1.875-.368 1.875-1.001 0-2.922-.151-3.198.686-3.198.388 0 1.056.192 2.616 1.667C19.114 18.217 19.407 19 20.405 19h2.624c.748 0 1.127-.368.909-1.094-.499-1.527-3.871-4.668-4.023-4.878z"></path>
  </symbol>

  <!--twitter  -->
  <symbol xmlns="http://www.w3.org/2000/svg" viewBox="0 0 512 512" id="twitter">
    <path d="M512 97.248c-19.04 8.352-39.328 13.888-60.48 16.576 21.76-12.992 38.368-33.408 46.176-58.016-20.288 12.096-42.688 20.64-66.56 25.408C411.872 60.704 384.416 48 354.464 48c-58.112 0-104.896 47.168-104.896 104.992 0 8.32.704 16.32 2.432 23.936-87.264-4.256-164.48-46.08-216.352-109.792-9.056 15.712-14.368 33.696-14.368 53.056 0 36.352 18.72 68.576 46.624 87.232-16.864-.32-33.408-5.216-47.424-12.928v1.152c0 51.008 36.384 93.376 84.096 103.136-8.544 2.336-17.856 3.456-27.52 3.456-6.72 0-13.504-.384-19.872-1.792 13.6 41.568 52.192 72.128 98.08 73.12-35.712 27.936-81.056 44.768-130.144 44.768-8.608 0-16.864-.384-25.12-1.44C46.496 446.88 101.6 464 161.024 464c193.152 0 298.752-160 298.752-298.688 0-4.64-.16-9.12-.384-13.568 20.832-14.784 38.336-33.248 52.608-54.496z"></path>
  </symbol>

  <!-- facebook -->
  <symbol viewBox="0 0 24 24" xmlns="http://www.w3.org/2000/svg" id="facebook">
    <path d="M15.997 3.985h2.191V.169C17.81.117 16.51 0 14.996 0c-3.159 0-5.323 1.987-5.323 5.639V9H6.187v4.266h3.486V24h4.274V13.267h3.345l.531-4.266h-3.877V6.062c.001-1.233.333-2.077 2.051-2.077z"></path>
  </symbol>

  <!--odnoklassniki  -->
  <symbol xmlns="http://www.w3.org/2000/svg" viewBox="0 0 95.481 95.481" id="odnoklassniki">
    <path d="M43.041 67.254c-7.402-.772-14.076-2.595-19.79-7.064-.709-.556-1.441-1.092-2.088-1.713-2.501-2.402-2.753-5.153-.774-7.988 1.693-2.426 4.535-3.075 7.489-1.682.572.27 1.117.607 1.639.969 10.649 7.317 25.278 7.519 35.967.329 1.059-.812 2.191-1.474 3.503-1.812 2.551-.655 4.93.282 6.299 2.514 1.564 2.549 1.544 5.037-.383 7.016-2.956 3.034-6.511 5.229-10.461 6.761-3.735 1.448-7.826 2.177-11.875 2.661.611.665.899.992 1.281 1.376 5.498 5.524 11.02 11.025 16.5 16.566 1.867 1.888 2.257 4.229 1.229 6.425-1.124 2.4-3.64 3.979-6.107 3.81-1.563-.108-2.782-.886-3.865-1.977-4.149-4.175-8.376-8.273-12.441-12.527-1.183-1.237-1.752-1.003-2.796.071-4.174 4.297-8.416 8.528-12.683 12.735-1.916 1.889-4.196 2.229-6.418 1.15-2.362-1.145-3.865-3.556-3.749-5.979.08-1.639.886-2.891 2.011-4.014 5.441-5.433 10.867-10.88 16.295-16.322.359-.362.694-.746 1.217-1.305z"></path>
    <path d="M47.55 48.329c-13.205-.045-24.033-10.992-23.956-24.218C23.67 10.739 34.505-.037 47.84 0c13.362.036 24.087 10.967 24.02 24.478-.068 13.199-10.971 23.897-24.31 23.851zm12.001-24.186c-.023-6.567-5.253-11.795-11.807-11.801-6.609-.007-11.886 5.316-11.835 11.943.049 6.542 5.324 11.733 11.896 11.709 6.552-.023 11.768-5.285 11.746-11.851z"></path>
  </symbol>
  
  <!-- phone -->
  <symbol xmlns="http://www.w3.org/2000/svg" viewBox="0 0 384 384" id="phone">
    <path d="M353.188 252.052c-23.51 0-46.594-3.677-68.469-10.906-10.719-3.656-23.896-.302-30.438 6.417l-43.177 32.594c-50.073-26.729-80.917-57.563-107.281-107.26l31.635-42.052c8.219-8.208 11.167-20.198 7.635-31.448-7.26-21.99-10.948-45.063-10.948-68.583C132.146 13.823 118.323 0 101.333 0h-70.52C13.823 0 0 13.823 0 30.813 0 225.563 158.438 384 353.188 384c16.99 0 30.813-13.823 30.813-30.813v-70.323c-.001-16.989-13.824-30.812-30.813-30.812z"></path>
  </symbol>

<!-- basket -->
  <symbol viewBox="0 0 36 49" id="basket">
    <path fill-rule="evenodd" clip-rule="evenodd" d="M33 14.625H3V42.75C3 43.5788 3.26339 44.3737 3.73223 44.9597C4.20107 45.5458 4.83696 45.875 5.5 45.875H30.5C31.163 45.875 31.7989 45.5458 32.2678 44.9597C32.7366 44.3737 33 43.5788 33 42.75V14.625ZM0.5 11.5V42.75C0.5 44.4076 1.02678 45.9973 1.96447 47.1694C2.90215 48.3415 4.17392 49 5.5 49H30.5C31.8261 49 33.0979 48.3415 34.0355 47.1694C34.9732 45.9973 35.5 44.4076 35.5 42.75V11.5H0.5Z" />
    <path d="M18 3.6875C16.3424 3.6875 14.7527 4.5106 13.5806 5.97573C12.4085 7.44086 11.75 9.428 11.75 11.5H9.25C9.25 8.59919 10.1719 5.8172 11.8128 3.76602C13.4538 1.71484 15.6794 0.5625 18 0.5625C20.3206 0.5625 22.5462 1.71484 24.1872 3.76602C25.8281 5.8172 26.75 8.59919 26.75 11.5H24.25C24.25 9.428 23.5915 7.44086 22.4194 5.97573C21.2473 4.5106 19.6576 3.6875 18 3.6875Z" />
    <path fill-rule="evenodd" clip-rule="evenodd" d="M25.1351 22.8937C25.2515 23.0389 25.3439 23.2113 25.4069 23.4011C25.4699 23.591 25.5023 23.7945 25.5023 24C25.5023 24.2055 25.4699 24.409 25.4069 24.5988C25.3439 24.7887 25.2515 24.9611 25.1351 25.1062L17.6351 34.4812C17.519 34.6267 17.3811 34.7422 17.2292 34.821C17.0773 34.8997 16.9145 34.9403 16.7501 34.9403C16.5857 34.9403 16.4229 34.8997 16.271 34.821C16.1192 34.7422 15.9812 34.6267 15.8651 34.4812L12.1151 29.7937C11.8804 29.5003 11.7485 29.1024 11.7485 28.6875C11.7485 28.2726 11.8804 27.8746 12.1151 27.5812C12.3498 27.2878 12.6682 27.123 13.0001 27.123C13.3321 27.123 13.6504 27.2878 13.8851 27.5812L16.7501 31.1656L23.3651 22.8937C23.4812 22.7482 23.6192 22.6328 23.771 22.554C23.9229 22.4752 24.0857 22.4347 24.2501 22.4347C24.4145 22.4347 24.5773 22.4752 24.7292 22.554C24.8811 22.6328 25.019 22.7482 25.1351 22.8937Z" />
  </symbol>

  <!-- <svg width="36" height="49" viewBox="0 0 36 49" fill="none" xmlns="http://www.w3.org/2000/svg">
<path fill-rule="evenodd" clip-rule="evenodd" d="M33 14.625H3V42.75C3 43.5788 3.26339 44.3737 3.73223 44.9597C4.20107 45.5458 4.83696 45.875 5.5 45.875H30.5C31.163 45.875 31.7989 45.5458 32.2678 44.9597C32.7366 44.3737 33 43.5788 33 42.75V14.625ZM0.5 11.5V42.75C0.5 44.4076 1.02678 45.9973 1.96447 47.1694C2.90215 48.3415 4.17392 49 5.5 49H30.5C31.8261 49 33.0979 48.3415 34.0355 47.1694C34.9732 45.9973 35.5 44.4076 35.5 42.75V11.5H0.5Z" fill="#747436"/>
<path d="M18 3.6875C16.3424 3.6875 14.7527 4.5106 13.5806 5.97573C12.4085 7.44086 11.75 9.428 11.75 11.5H9.25C9.25 8.59919 10.1719 5.8172 11.8128 3.76602C13.4538 1.71484 15.6794 0.5625 18 0.5625C20.3206 0.5625 22.5462 1.71484 24.1872 3.76602C25.8281 5.8172 26.75 8.59919 26.75 11.5H24.25C24.25 9.428 23.5915 7.44086 22.4194 5.97573C21.2473 4.5106 19.6576 3.6875 18 3.6875Z" fill="#747436"/>
<path fill-rule="evenodd" clip-rule="evenodd" d="M25.1351 22.8937C25.2515 23.0389 25.3439 23.2113 25.4069 23.4011C25.4699 23.591 25.5023 23.7945 25.5023 24C25.5023 24.2055 25.4699 24.409 25.4069 24.5988C25.3439 24.7887 25.2515 24.9611 25.1351 25.1062L17.6351 34.4812C17.519 34.6267 17.3811 34.7422 17.2292 34.821C17.0773 34.8997 16.9145 34.9403 16.7501 34.9403C16.5857 34.9403 16.4229 34.8997 16.271 34.821C16.1192 34.7422 15.9812 34.6267 15.8651 34.4812L12.1151 29.7937C11.8804 29.5003 11.7485 29.1024 11.7485 28.6875C11.7485 28.2726 11.8804 27.8746 12.1151 27.5812C12.3498 27.2878 12.6682 27.123 13.0001 27.123C13.3321 27.123 13.6504 27.2878 13.8851 27.5812L16.7501 31.1656L23.3651 22.8937C23.4812 22.7482 23.6192 22.6328 23.771 22.554C23.9229 22.4752 24.0857 22.4347 24.2501 22.4347C24.4145 22.4347 24.5773 22.4752 24.7292 22.554C24.8811 22.6328 25.019 22.7482 25.1351 22.8937Z" fill="#747436"/>
</svg> -->


<!-- marker -->
  <symbol viewBox="0 0 18 26" id="marker">
    <path d="M9 0.5C4.1625 0.5 0.25 4.4125 0.25 9.25C0.25 15.8125 9 25.5 9 25.5C9 25.5 17.75 15.8125 17.75 9.25C17.75 4.4125 13.8375 0.5 9 0.5ZM9 12.375C8.1712 12.375 7.37634 12.0458 6.79029 11.4597C6.20424 10.8737 5.875 10.0788 5.875 9.25C5.875 8.4212 6.20424 7.62634 6.79029 7.04029C7.37634 6.45424 8.1712 6.125 9 6.125C9.8288 6.125 10.6237 6.45424 11.2097 7.04029C11.7958 7.62634 12.125 8.4212 12.125 9.25C12.125 10.0788 11.7958 10.8737 11.2097 11.4597C10.6237 12.0458 9.8288 12.375 9 12.375Z" fill="#747436"/>
  </symbol>

  <!-- arrow -->
    <symbol viewBox="0 0 28 48" id="arrow">
    <path d="M24.938 32.0813L15.563 41.4563V0.710449H12.438V41.4563L3.06296 32.0813L0.852539 34.2917L14.0005 47.4375L27.1463 34.2917L24.9359 32.0813H24.938Z" />
  </symbol>

  <!-- cross -->
  <symbol viewBox="0 0 32 32" id="cross">
    <path d="M3.79502 1.20263L3.85412 1.2597L15.8232 13.2308L15.9999 13.4076L16.1767 13.2308L28.2064 1.20115C28.552 0.868126 29.0145 0.683887 29.4944 0.688058C29.9751 0.692235 30.435 0.885045 30.7749 1.22496C31.1148 1.56487 31.3076 2.0247 31.3118 2.50539C31.3159 2.98539 31.1317 3.44786 30.7986 3.79347L18.769 15.8231L18.5922 15.9999L18.769 16.1767L30.7987 28.2063C31.1317 28.5519 31.3159 29.0144 31.3118 29.4944C31.3076 29.9751 31.1148 30.4349 30.7749 30.7748C30.435 31.1147 29.9751 31.3075 29.4944 31.3117C29.0145 31.3159 28.552 31.1316 28.2064 30.7986L16.1767 18.7689L16 18.5922L15.8232 18.7689L3.78985 30.8002L3.78983 30.8001L3.78679 30.8033C3.61767 30.9784 3.41538 31.1181 3.1917 31.2141C2.96803 31.3102 2.72746 31.3608 2.48403 31.3629C2.2406 31.365 1.99919 31.3186 1.77388 31.2265C1.54857 31.1343 1.34387 30.9982 1.17174 30.826C0.9996 30.6539 0.863469 30.4492 0.771287 30.2239C0.679105 29.9986 0.63272 29.7572 0.634835 29.5137C0.63695 29.2703 0.687524 29.0297 0.783607 28.8061C0.879691 28.5824 1.01936 28.3801 1.19446 28.211L1.19449 28.211L1.19754 28.2079L13.2309 16.1767L13.4077 15.9999L13.2309 15.8231L1.20123 3.79345C0.868193 3.44784 0.683947 2.98538 0.688118 2.50539C0.692296 2.0247 0.885106 1.56487 1.22502 1.22496C1.56494 0.885045 2.02476 0.692235 2.50545 0.688058C2.98615 0.68388 3.44925 0.86867 3.79502 1.20263Z" fill="#747436" stroke="#F8F8F8" stroke-width="0.5"/>
  <!-- add -->
  <symbol xmlns="http://www.w3.org/2000/svg" viewBox="0 0 512 512" id="add">
    <path d="M256 0C114.844 0 0 114.844 0 256s114.844 256 256 256 256-114.844 256-256S397.156 0 256 0zm0 490.667C126.604 490.667 21.333 385.396 21.333 256S126.604 21.333 256 21.333 490.667 126.604 490.667 256 385.396 490.667 256 490.667z"></path>
    <path d="M394.667 245.333h-128v-128c0-5.896-4.771-10.667-10.667-10.667s-10.667 4.771-10.667 10.667v128h-128c-5.896 0-10.667 4.771-10.667 10.667s4.771 10.667 10.667 10.667h128v128c0 5.896 4.771 10.667 10.667 10.667s10.667-4.771 10.667-10.667v-128h128c5.896 0 10.667-4.771 10.667-10.667s-4.771-10.667-10.667-10.667z"></path>
  </symbol>
  <!-- minus -->
  <symbol xmlns="http://www.w3.org/2000/svg" viewBox="0 0 512 512" id="minus">
    <path d="M256 0C114.615 0 0 114.615 0 256s114.615 256 256 256 256-114.615 256-256C511.835 114.683 397.317.165 256 0zm0 490.667C126.397 490.667 21.333 385.603 21.333 256S126.397 21.333 256 21.333 490.667 126.397 490.667 256C490.52 385.542 385.542 490.52 256 490.667z"></path>
    <path d="M74.667 245.333h362.667v21.333H74.667z"></path>
  </symbol>
</svg>
