<svg width="0" height="0" class="hidden">
  <symbol xmlns="http://www.w3.org/2000/svg" viewBox="0 0 512 512" id="instagram">
    <path d="M352 0H160C71.648 0 0 71.648 0 160v192c0 88.352 71.648 160 160 160h192c88.352 0 160-71.648 160-160V160C512 71.648 440.352 0 352 0zm112 352c0 61.76-50.24 112-112 112H160c-61.76 0-112-50.24-112-112V160C48 98.24 98.24 48 160 48h192c61.76 0 112 50.24 112 112v192z"></path>
    <path d="M256 128c-70.688 0-128 57.312-128 128s57.312 128 128 128 128-57.312 128-128-57.312-128-128-128zm0 208c-44.096 0-80-35.904-80-80 0-44.128 35.904-80 80-80s80 35.872 80 80c0 44.096-35.904 80-80 80z"></path>
    <circle cx="393.6" cy="118.4" r="17.056"></circle>
  </symbol>
  <symbol viewBox="0 0 24 24" xmlns="http://www.w3.org/2000/svg" id="vk">
    <path d="M19.915 13.028c-.388-.49-.277-.708 0-1.146.005-.005 3.208-4.431 3.538-5.932l.002-.001c.164-.547 0-.949-.793-.949h-2.624c-.668 0-.976.345-1.141.731 0 0-1.336 3.198-3.226 5.271-.61.599-.892.791-1.225.791-.164 0-.419-.192-.419-.739V5.949c0-.656-.187-.949-.74-.949H9.161c-.419 0-.668.306-.668.591 0 .622.945.765 1.043 2.515v3.797c0 .832-.151.985-.486.985-.892 0-3.057-3.211-4.34-6.886-.259-.713-.512-1.001-1.185-1.001H.9c-.749 0-.9.345-.9.731 0 .682.892 4.073 4.148 8.553C6.318 17.343 9.374 19 12.154 19c1.671 0 1.875-.368 1.875-1.001 0-2.922-.151-3.198.686-3.198.388 0 1.056.192 2.616 1.667C19.114 18.217 19.407 19 20.405 19h2.624c.748 0 1.127-.368.909-1.094-.499-1.527-3.871-4.668-4.023-4.878z"></path>
  </symbol>
  <symbol xmlns="http://www.w3.org/2000/svg" viewBox="0 0 512 512" id="twitter">
    <path d="M512 97.248c-19.04 8.352-39.328 13.888-60.48 16.576 21.76-12.992 38.368-33.408 46.176-58.016-20.288 12.096-42.688 20.64-66.56 25.408C411.872 60.704 384.416 48 354.464 48c-58.112 0-104.896 47.168-104.896 104.992 0 8.32.704 16.32 2.432 23.936-87.264-4.256-164.48-46.08-216.352-109.792-9.056 15.712-14.368 33.696-14.368 53.056 0 36.352 18.72 68.576 46.624 87.232-16.864-.32-33.408-5.216-47.424-12.928v1.152c0 51.008 36.384 93.376 84.096 103.136-8.544 2.336-17.856 3.456-27.52 3.456-6.72 0-13.504-.384-19.872-1.792 13.6 41.568 52.192 72.128 98.08 73.12-35.712 27.936-81.056 44.768-130.144 44.768-8.608 0-16.864-.384-25.12-1.44C46.496 446.88 101.6 464 161.024 464c193.152 0 298.752-160 298.752-298.688 0-4.64-.16-9.12-.384-13.568 20.832-14.784 38.336-33.248 52.608-54.496z"></path>
  </symbol>
  <symbol viewBox="0 0 24 24" xmlns="http://www.w3.org/2000/svg" id="facebook">
    <path d="M15.997 3.985h2.191V.169C17.81.117 16.51 0 14.996 0c-3.159 0-5.323 1.987-5.323 5.639V9H6.187v4.266h3.486V24h4.274V13.267h3.345l.531-4.266h-3.877V6.062c.001-1.233.333-2.077 2.051-2.077z"></path>
  </symbol>
  <symbol xmlns="http://www.w3.org/2000/svg" viewBox="0 0 95.481 95.481" id="odnoklassniki">
    <path d="M43.041 67.254c-7.402-.772-14.076-2.595-19.79-7.064-.709-.556-1.441-1.092-2.088-1.713-2.501-2.402-2.753-5.153-.774-7.988 1.693-2.426 4.535-3.075 7.489-1.682.572.27 1.117.607 1.639.969 10.649 7.317 25.278 7.519 35.967.329 1.059-.812 2.191-1.474 3.503-1.812 2.551-.655 4.93.282 6.299 2.514 1.564 2.549 1.544 5.037-.383 7.016-2.956 3.034-6.511 5.229-10.461 6.761-3.735 1.448-7.826 2.177-11.875 2.661.611.665.899.992 1.281 1.376 5.498 5.524 11.02 11.025 16.5 16.566 1.867 1.888 2.257 4.229 1.229 6.425-1.124 2.4-3.64 3.979-6.107 3.81-1.563-.108-2.782-.886-3.865-1.977-4.149-4.175-8.376-8.273-12.441-12.527-1.183-1.237-1.752-1.003-2.796.071-4.174 4.297-8.416 8.528-12.683 12.735-1.916 1.889-4.196 2.229-6.418 1.15-2.362-1.145-3.865-3.556-3.749-5.979.08-1.639.886-2.891 2.011-4.014 5.441-5.433 10.867-10.88 16.295-16.322.359-.362.694-.746 1.217-1.305z"></path>
    <path d="M47.55 48.329c-13.205-.045-24.033-10.992-23.956-24.218C23.67 10.739 34.505-.037 47.84 0c13.362.036 24.087 10.967 24.02 24.478-.068 13.199-10.971 23.897-24.31 23.851zm12.001-24.186c-.023-6.567-5.253-11.795-11.807-11.801-6.609-.007-11.886 5.316-11.835 11.943.049 6.542 5.324 11.733 11.896 11.709 6.552-.023 11.768-5.285 11.746-11.851z"></path>
  </symbol>
  <symbol xmlns="http://www.w3.org/2000/svg" viewBox="0 0 384 384" id="phone">
    <path d="M353.188 252.052c-23.51 0-46.594-3.677-68.469-10.906-10.719-3.656-23.896-.302-30.438 6.417l-43.177 32.594c-50.073-26.729-80.917-57.563-107.281-107.26l31.635-42.052c8.219-8.208 11.167-20.198 7.635-31.448-7.26-21.99-10.948-45.063-10.948-68.583C132.146 13.823 118.323 0 101.333 0h-70.52C13.823 0 0 13.823 0 30.813 0 225.563 158.438 384 353.188 384c16.99 0 30.813-13.823 30.813-30.813v-70.323c-.001-16.989-13.824-30.812-30.813-30.812z"></path>
  </symbol>
</svg>

<!-- basket -->
<svg display="none" xmlns="http://www.w3.org/2000/svg">
  <symbol viewBox="0 0 36 49" id="basket">
    <path fill-rule="evenodd" clip-rule="evenodd" d="M33 14.625H3V42.75C3 43.5788 3.26339 44.3737 3.73223 44.9597C4.20107 45.5458 4.83696 45.875 5.5 45.875H30.5C31.163 45.875 31.7989 45.5458 32.2678 44.9597C32.7366 44.3737 33 43.5788 33 42.75V14.625ZM0.5 11.5V42.75C0.5 44.4076 1.02678 45.9973 1.96447 47.1694C2.90215 48.3415 4.17392 49 5.5 49H30.5C31.8261 49 33.0979 48.3415 34.0355 47.1694C34.9732 45.9973 35.5 44.4076 35.5 42.75V11.5H0.5Z" fill="#747436"/>
    <path d="M18 3.6875C16.3424 3.6875 14.7527 4.5106 13.5806 5.97573C12.4085 7.44086 11.75 9.428 11.75 11.5H9.25C9.25 8.59919 10.1719 5.8172 11.8128 3.76602C13.4538 1.71484 15.6794 0.5625 18 0.5625C20.3206 0.5625 22.5462 1.71484 24.1872 3.76602C25.8281 5.8172 26.75 8.59919 26.75 11.5H24.25C24.25 9.428 23.5915 7.44086 22.4194 5.97573C21.2473 4.5106 19.6576 3.6875 18 3.6875Z" fill="#747436"/>
    <path fill-rule="evenodd" clip-rule="evenodd" d="M25.1351 22.8937C25.2515 23.0389 25.3439 23.2113 25.4069 23.4011C25.4699 23.591 25.5023 23.7945 25.5023 24C25.5023 24.2055 25.4699 24.409 25.4069 24.5988C25.3439 24.7887 25.2515 24.9611 25.1351 25.1062L17.6351 34.4812C17.519 34.6267 17.3811 34.7422 17.2292 34.821C17.0773 34.8997 16.9145 34.9403 16.7501 34.9403C16.5857 34.9403 16.4229 34.8997 16.271 34.821C16.1192 34.7422 15.9812 34.6267 15.8651 34.4812L12.1151 29.7937C11.8804 29.5003 11.7485 29.1024 11.7485 28.6875C11.7485 28.2726 11.8804 27.8746 12.1151 27.5812C12.3498 27.2878 12.6682 27.123 13.0001 27.123C13.3321 27.123 13.6504 27.2878 13.8851 27.5812L16.7501 31.1656L23.3651 22.8937C23.4812 22.7482 23.6192 22.6328 23.771 22.554C23.9229 22.4752 24.0857 22.4347 24.2501 22.4347C24.4145 22.4347 24.5773 22.4752 24.7292 22.554C24.8811 22.6328 25.019 22.7482 25.1351 22.8937Z" fill="#747436"/>
  </symbol>

<!-- marker -->
  <symbol viewBox="0 0 18 26" id="marker">
    <path d="M9 0.5C4.1625 0.5 0.25 4.4125 0.25 9.25C0.25 15.8125 9 25.5 9 25.5C9 25.5 17.75 15.8125 17.75 9.25C17.75 4.4125 13.8375 0.5 9 0.5ZM9 12.375C8.1712 12.375 7.37634 12.0458 6.79029 11.4597C6.20424 10.8737 5.875 10.0788 5.875 9.25C5.875 8.4212 6.20424 7.62634 6.79029 7.04029C7.37634 6.45424 8.1712 6.125 9 6.125C9.8288 6.125 10.6237 6.45424 11.2097 7.04029C11.7958 7.62634 12.125 8.4212 12.125 9.25C12.125 10.0788 11.7958 10.8737 11.2097 11.4597C10.6237 12.0458 9.8288 12.375 9 12.375Z" fill="#747436"/>
  </symbol>

  <!-- arrow -->
    <symbol viewBox="0 0 28 48" id="arrow">
    <path d="M24.938 32.0813L15.563 41.4563V0.710449H12.438V41.4563L3.06296 32.0813L0.852539 34.2917L14.0005 47.4375L27.1463 34.2917L24.9359 32.0813H24.938Z" fill="#2C2C11"/>
  </symbol>

  <!-- facebook -->
  <symbol viewBox="0 0 40 40" id="facebook">
    <path d="M19.9998 0.800049C9.39581 0.800049 0.799805 9.39605 0.799805 20C0.799805 30.604 9.39581 39.2001 19.9998 39.2001C30.6038 39.2001 39.1998 30.604 39.1998 20C39.1998 9.39605 30.6038 0.800049 19.9998 0.800049ZM24.5478 14.068H21.6618C21.3198 14.068 20.9398 14.518 20.9398 15.116V17.2001H24.5498L24.0038 20.1721H20.9398V29.094H17.5338V20.1721H14.4438V17.2001H17.5338V15.452C17.5338 12.944 19.2738 10.906 21.6618 10.906H24.5478V14.068Z" fill="#A2A88F"/>
  </symbol>

  <!-- instagram -->
  <symbol viewBox="0 0 40 40" id="instagram">
    <path d="M20 40C17.2917 40 14.7005 39.4727 12.2266 38.418C9.7526 37.3633 7.6237 35.944 5.83984 34.1602C4.05599 32.3763 2.63672 30.2474 1.58203 27.7734C0.527344 25.2995 0 22.7083 0 20C0 17.2917 0.527344 14.7005 1.58203 12.2266C2.63672 9.7526 4.05599 7.6237 5.83984 5.83984C7.6237 4.05599 9.7526 2.63672 12.2266 1.58203C14.7005 0.527344 17.2917 0 20 0C22.7083 0 25.2995 0.527344 27.7734 1.58203C30.2474 2.63672 32.3763 4.05599 34.1602 5.83984C35.944 7.6237 37.3633 9.7526 38.418 12.2266C39.4727 14.7005 40 17.2917 40 20C40 22.7083 39.4727 25.2995 38.418 27.7734C37.3633 30.2474 35.944 32.3763 34.1602 34.1602C32.3763 35.944 30.2474 37.3633 27.7734 38.418C25.2995 39.4727 22.7083 40 20 40ZM30 12.5C30 11.8229 29.7591 11.237 29.2773 10.7422C28.7956 10.2474 28.2031 10 27.5 10H12.5C11.8229 10 11.237 10.2474 10.7422 10.7422C10.2474 11.237 10 11.8229 10 12.5V15H14.4531C15.9635 13.3333 17.8125 12.5 20 12.5C22.1875 12.5 24.0365 13.3333 25.5469 15H30V12.5ZM15 20C15 21.3802 15.4883 22.5586 16.4648 23.5352C17.4414 24.5117 18.6198 25 20 25C21.3802 25 22.5586 24.5117 23.5352 23.5352C24.5117 22.5586 25 21.3802 25 20C25 18.6198 24.5117 17.4414 23.5352 16.4648C22.5586 15.4883 21.3802 15 20 15C18.6198 15 17.4414 15.4883 16.4648 16.4648C15.4883 17.4414 15 18.6198 15 20ZM30 17.5H27.0312C27.3438 18.3594 27.5 19.1927 27.5 20C27.5 22.0833 26.7708 23.8542 25.3125 25.3125C23.8542 26.7708 22.0833 27.5 20 27.5C17.9167 27.5 16.1458 26.7708 14.6875 25.3125C13.2292 23.8542 12.5 22.0833 12.5 20C12.5 19.1927 12.6562 18.3594 12.9688 17.5H10V27.5C10 28.2031 10.2409 28.7956 10.7227 29.2773C11.2044 29.7591 11.7969 30 12.5 30H27.5C28.2031 30 28.7956 29.7591 29.2773 29.2773C29.7591 28.7956 30 28.2031 30 27.5V17.5Z" fill="#A2A88F"/>
  </symbol>

  <!-- twiter -->
  <symbol viewBox="0 0 40 40" id="twiter">
    <path d="M19.9998 0.800049C9.39581 0.800049 0.799805 9.39605 0.799805 20C0.799805 30.604 9.39581 39.2001 19.9998 39.2001C30.6038 39.2001 39.1998 30.604 39.1998 20C39.1998 9.39605 30.6038 0.800049 19.9998 0.800049ZM27.8098 16.528C27.8178 16.692 27.8198 16.8561 27.8198 17.0161C27.8198 22.0161 24.0178 27.778 17.0618 27.778C15.0064 27.7815 12.9937 27.1911 11.2658 26.078C11.5598 26.114 11.8618 26.128 12.1678 26.128C13.9398 26.128 15.5698 25.5261 16.8638 24.51C16.0752 24.4946 15.3111 24.2334 14.678 23.7631C14.0449 23.2927 13.5743 22.6366 13.3318 21.886C13.8981 21.9937 14.4815 21.9712 15.0378 21.82C14.1819 21.647 13.4122 21.1832 12.8592 20.5074C12.3062 19.8316 12.004 18.9853 12.0038 18.112V18.066C12.5138 18.348 13.0978 18.5201 13.7178 18.5401C12.9154 18.0059 12.3474 17.1854 12.1299 16.2463C11.9124 15.3072 12.0619 14.3206 12.5478 13.488C13.4977 14.656 14.6823 15.6115 16.0249 16.2927C17.3676 16.9738 18.8383 17.3654 20.3418 17.442C20.1507 16.6307 20.2329 15.7789 20.5758 15.0191C20.9187 14.2593 21.503 13.634 22.2379 13.2406C22.9728 12.8471 23.8171 12.7075 24.6396 12.8434C25.462 12.9793 26.2165 13.3831 26.7858 13.992C27.6321 13.8246 28.4438 13.5142 29.1858 13.074C28.9037 13.9503 28.3132 14.6944 27.5238 15.168C28.2735 15.0778 29.0055 14.8762 29.6958 14.57C29.1888 15.3298 28.5501 15.9929 27.8098 16.528Z" fill="#A2A88F"/>
  </symbol>

  <!-- phone -->
  <symbol viewBox="0 0 40 40" id="phone">
    <path d="M20 0C8.9543 0 0 8.9543 0 20C0 31.0457 8.9543 40 20 40C31.0457 40 40 31.0457 40 20C40 8.9543 31.0457 0 20 0ZM12.8125 7.94433C13.2246 7.92003 13.597 8.16633 13.8794 8.6035L16.6138 13.789C16.9017 14.4035 16.7381 15.0614 16.3086 15.5005L15.0562 16.7529C14.9789 16.8588 14.928 16.9781 14.9268 17.1093C15.4071 18.9685 16.864 20.6834 18.1495 21.8628C19.4349 23.0421 20.8164 24.6388 22.6099 25.0171C22.8315 25.0789 23.1031 25.1011 23.2617 24.9536L24.7168 23.4717C25.2191 23.091 25.9457 22.9065 26.4819 23.2178H26.5063L31.4404 26.1304C32.1646 26.5844 32.2397 27.4619 31.7211 27.9956L28.3228 31.3672C27.8209 31.8819 27.1542 32.0549 26.5064 32.0557C23.6415 31.9698 20.9345 30.5637 18.711 29.1187C15.0613 26.4636 11.7136 23.1705 9.61183 19.1919C8.80577 17.5236 7.85887 15.3949 7.94923 13.5328C7.9573 12.8322 8.14683 12.1459 8.64017 11.6944L12.0386 8.29597C12.3033 8.0707 12.5652 7.95893 12.8125 7.94433Z" fill="#A2A88F"/>
  </symbol>
</svg>